<?xml version="1.0" standalone="no"?>
<!DOCTYPE svg PUBLIC "-//W3C//DTD SVG 20010904//EN"
 "http://www.w3.org/TR/2001/REC-SVG-20010904/DTD/svg10.dtd">
<svg version="1.0" xmlns="http://www.w3.org/2000/svg"
 width="650.000000pt" height="650.000000pt" viewBox="0 0 650.000000 650.000000"
 preserveAspectRatio="xMidYMid meet">
<metadata>
Created by potrace 1.11, written by Peter Selinger 2001-2013
</metadata>
<g transform="translate(0.000000,650.000000) scale(0.100000,-0.100000)"
fill="#000000" stroke="none">
<path d="M4065 5986 c-95 -45 -161 -139 -191 -273 -22 -98 -15 -267 15 -368
78 -261 257 -447 446 -463 52 -4 72 0 117 20 138 64 212 212 211 428 0 413
-336 780 -598 656z"/>
<path d="M3685 5742 c-99 -80 -488 -396 -865 -702 -377 -306 -813 -659 -970
-784 -339 -272 -345 -278 -366 -333 -17 -45 -16 -145 2 -163 6 -6 219 129 564
356 305 201 742 488 970 638 228 150 451 291 495 312 77 37 84 39 180 39 95 0
104 -2 179 -38 94 -44 206 -147 273 -249 l44 -67 52 20 c111 45 108 41 53 50
-151 24 -316 167 -406 352 -65 135 -93 250 -93 392 -1 116 16 205 53 279 11
22 18 41 17 42 -1 1 -83 -64 -182 -144z"/>
<path d="M3596 5033 c-67 -23 -148 -100 -186 -176 -153 -312 6 -790 314 -943
73 -35 86 -39 160 -39 98 0 157 27 225 100 111 120 149 342 95 555 -22 89 -91
232 -148 307 -125 165 -316 246 -460 196z"/>
<path d="M2845 4605 c-1251 -826 -1522 -1007 -1563 -1045 -40 -36 -45 -45 -55
-109 -9 -60 -8 -76 7 -115 10 -25 21 -46 24 -46 4 0 72 27 152 61 80 33 354
145 610 249 674 272 792 322 955 401 173 83 298 88 449 16 165 -78 286 -241
322 -434 38 -204 17 -367 -73 -553 -37 -77 -60 -109 -122 -171 -63 -63 -89
-81 -156 -109 -193 -80 -379 -39 -535 119 -260 263 -275 710 -33 1009 l26 33
-49 -22 c-125 -53 -318 -133 -809 -332 -598 -243 -840 -344 -937 -393 -63 -32
-67 -36 -88 -91 -55 -145 12 -303 157 -370 l51 -24 1009 11 c554 6 1213 12
1463 13 l455 2 -45 27 c-186 110 -300 387 -270 655 17 153 72 289 156 382 l41
46 -102 0 c-100 0 -103 1 -190 44 -141 70 -258 200 -332 371 -51 119 -65 184
-70 325 -6 157 9 236 67 342 22 40 38 73 37 72 -1 0 -249 -164 -552 -364z"/>
<path d="M4565 4796 c-149 -70 -247 -285 -231 -511 7 -111 25 -179 71 -271 44
-90 107 -161 177 -199 44 -25 64 -30 123 -30 59 0 79 5 124 30 213 118 284
490 148 774 -43 89 -144 191 -211 214 -70 24 -141 22 -201 -7z"/>
<path d="M3090 3982 c-151 -50 -272 -182 -336 -367 -26 -72 -28 -93 -29 -220
0 -120 3 -151 23 -215 35 -111 79 -187 152 -261 111 -113 248 -164 381 -140
277 48 473 367 429 698 -29 224 -150 407 -320 487 -84 39 -213 47 -300 18z"/>
<path d="M4202 3859 c-137 -27 -260 -155 -319 -333 -24 -73 -27 -95 -27 -226
0 -131 3 -153 27 -226 48 -145 142 -260 253 -311 73 -33 183 -30 259 7 111 53
214 199 251 355 22 93 22 259 0 350 -37 152 -138 300 -241 353 -31 15 -155 48
-159 41 -1 -1 -20 -5 -44 -10z"/>
<path d="M4990 3732 c-84 -41 -164 -162 -195 -297 -23 -98 -21 -260 4 -358 48
-187 156 -302 281 -301 96 0 174 62 235 188 130 266 54 664 -147 767 -47 24
-131 25 -178 1z"/>
<path d="M5295 2162 l-140 -3 -155 -239 -155 -240 -52 0 -53 0 0 240 0 240
-120 0 -120 0 0 -590 0 -590 120 0 120 0 0 245 0 245 68 0 67 0 155 -241 c85
-133 160 -243 165 -246 6 -2 72 -2 147 -1 l137 3 -214 314 -214 313 78 107
c256 352 319 441 313 443 -4 2 -70 2 -147 0z"/>
<path d="M940 1731 c0 -400 1 -433 20 -493 49 -160 197 -259 408 -274 195 -14
371 55 457 180 62 91 65 120 65 593 l0 423 -120 0 -119 0 -3 -432 c-3 -417 -4
-435 -24 -473 -11 -22 -40 -53 -63 -70 -38 -27 -52 -30 -128 -34 -134 -5 -216
40 -242 136 -7 24 -11 195 -11 456 l0 417 -120 0 -120 0 0 -429z"/>
<path d="M2010 2070 l0 -90 165 0 165 0 0 -500 0 -500 120 0 120 0 0 500 0
500 170 0 170 0 0 90 0 90 -455 0 -455 0 0 -90z"/>
<path d="M3050 1570 l0 -590 120 0 120 0 -1 188 c0 103 -6 296 -12 430 -7 133
-9 242 -4 242 4 0 7 -5 7 -10 0 -6 68 -199 152 -430 l151 -420 81 0 82 0 154
428 c84 235 155 429 157 431 9 12 8 -23 -3 -254 -7 -137 -13 -330 -13 -427
l-1 -178 120 0 120 0 0 590 0 591 -157 -3 -156 -3 -103 -295 c-57 -162 -124
-355 -150 -428 -26 -73 -49 -130 -53 -127 -3 4 -71 196 -152 428 l-146 422
-156 3 -157 3 0 -591z"/>
</g>
</svg>
