<?xml version="1.0" standalone="no"?>
<!DOCTYPE svg PUBLIC "-//W3C//DTD SVG 20010904//EN"
 "http://www.w3.org/TR/2001/REC-SVG-20010904/DTD/svg10.dtd">
<svg version="1.0" xmlns="http://www.w3.org/2000/svg"
 width="512.000000pt" height="512.000000pt" viewBox="0 0 512.000000 512.000000"
 preserveAspectRatio="xMidYMid meet">
<metadata>
Created by potrace 1.11, written by Peter Selinger 2001-2013
</metadata>
<g transform="translate(0.000000,512.000000) scale(0.100000,-0.100000)"
fill="#000000" stroke="none">
<path d="M3695 4704 c-418 -114 -1158 -310 -1205 -319 -8 -2 -53 -13 -100 -25
-94 -24 -189 -28 -244 -10 -19 6 -41 8 -48 4 -7 -4 -9 -3 -5 1 4 5 -1 14 -12
19 -11 6 -43 34 -73 62 -87 83 -208 166 -268 185 -81 25 -86 24 -500 -86 -52
-14 -234 -61 -403 -105 -170 -44 -323 -87 -341 -94 -18 -7 -44 -28 -59 -46
-61 -72 -57 26 -56 -1504 0 -770 5 -1435 10 -1476 14 -128 31 -221 50 -290 19
-64 72 -195 91 -222 10 -14 18 -29 18 -32 0 -3 16 -23 35 -43 20 -21 33 -44
30 -51 -2 -7 0 -10 5 -7 9 6 70 -21 70 -31 0 -3 -5 -2 -12 2 -7 4 -8 3 -4 -4
4 -6 13 -9 21 -5 9 3 21 0 29 -6 7 -6 16 -8 19 -4 4 3 7 2 7 -3 0 -5 19 -8 42
-7 24 2 55 4 70 4 15 1 25 6 22 10 -3 5 2 6 10 3 9 -4 16 -1 16 6 0 7 6 10 14
7 7 -3 18 -1 23 4 7 7 12 5 16 -4 4 -11 -1 -14 -18 -12 -15 1 -22 -2 -18 -8 3
-6 1 -7 -5 -3 -8 5 -10 1 -6 -11 5 -15 4 -16 -6 -3 -9 12 -11 12 -8 1 6 -21
28 -26 28 -7 0 9 5 16 11 16 5 0 8 -4 5 -8 -3 -5 1 -9 9 -9 8 0 11 5 8 10 -3
5 0 8 7 5 8 -2 14 -13 15 -24 1 -10 6 -28 13 -39 14 -25 16 -11 1 17 -14 25
-5 35 15 15 8 -8 12 -17 9 -21 -4 -3 -1 -6 5 -6 20 0 14 17 -13 38 -13 11 -21
23 -17 27 4 5 1 5 -7 0 -10 -6 -12 -2 -6 16 5 19 4 21 -4 9 -8 -11 -11 -11
-11 -2 0 15 35 30 65 28 11 -1 23 2 26 6 3 5 14 10 25 12 10 3 38 11 61 19 22
9 44 13 48 9 3 -4 10 0 15 8 5 8 12 11 16 8 12 -12 -20 -34 -48 -33 -23 2 -26
-1 -17 -17 6 -12 6 -18 -1 -18 -5 0 -10 7 -10 15 0 8 -5 15 -11 15 -5 0 -8 -4
-5 -9 4 -5 -2 -8 -11 -6 -10 1 -26 -7 -36 -19 -16 -20 -17 -20 -11 -1 4 16 2
15 -9 -4 -13 -22 -14 -22 -21 -5 -7 18 -8 18 -21 1 -10 -13 -14 -15 -18 -5 -3
7 -6 8 -6 2 -1 -6 13 -28 29 -49 17 -21 30 -33 30 -28 0 6 -7 16 -15 23 -13
11 -13 14 2 26 24 18 39 18 24 0 -6 -7 -9 -21 -5 -29 5 -13 9 -14 24 -5 10 7
16 16 14 20 -9 14 13 8 26 -7 10 -12 10 -15 -4 -15 -9 0 -16 -5 -16 -10 0 -7
6 -7 18 -2 9 5 25 8 34 7 10 -2 21 2 25 8 3 7 3 9 -2 5 -4 -4 -14 4 -22 18
-16 32 -17 44 -2 44 5 0 8 -4 4 -9 -3 -5 0 -13 6 -17 17 -10 50 33 42 54 -6
15 -5 15 10 3 13 -11 15 -17 6 -28 -10 -11 -8 -12 6 -7 13 5 16 4 11 -4 -4 -7
-2 -12 3 -12 13 0 14 10 2 30 -6 8 -7 18 -4 23 3 6 11 0 18 -13 10 -19 13 -20
18 -6 4 10 3 15 -3 11 -6 -3 -10 1 -10 10 0 9 4 14 9 10 5 -3 12 -1 16 5 3 5
11 10 18 10 8 0 8 -3 -1 -12 -15 -15 -15 -28 -1 -28 5 0 8 4 5 9 -3 5 2 15 11
22 15 12 16 12 10 -4 -3 -9 -4 -24 -1 -32 5 -12 9 -12 30 2 14 9 22 18 20 21
-3 3 -12 -1 -21 -8 -9 -7 -18 -10 -22 -6 -8 8 29 36 42 32 6 -2 9 -16 8 -32
-2 -25 -1 -26 8 -11 6 10 8 24 5 32 -2 7 2 19 11 27 14 11 15 10 10 -12 -4
-14 -4 -19 -1 -12 3 6 11 9 17 5 6 -4 8 0 4 10 -3 8 1 21 10 29 14 11 15 10 9
-12 -6 -19 -5 -21 3 -10 7 10 11 11 11 3 0 -7 5 -13 11 -13 8 0 7 5 -1 15 -11
13 -11 18 0 28 8 8 11 8 7 1 -4 -7 -1 -17 7 -23 7 -6 12 -22 11 -34 -2 -15 2
-24 11 -24 10 0 11 4 4 11 -16 16 -12 30 5 16 8 -7 15 -9 15 -5 0 4 -12 17
-27 28 l-27 21 25 7 c15 4 28 1 35 -8 10 -11 13 -11 18 4 4 10 1 22 -7 28 -7
5 -12 15 -10 22 2 6 0 14 -5 17 -5 3 -8 -6 -6 -20 2 -19 -1 -24 -13 -20 -8 3
-17 6 -21 6 -3 0 3 7 14 16 18 14 18 15 -4 4 -12 -6 -20 -15 -17 -20 3 -5 -4
-8 -15 -7 -11 1 -20 5 -20 10 0 4 -5 5 -11 1 -8 -5 -8 -8 0 -13 8 -5 5 -13 -9
-26 -11 -10 -20 -13 -20 -7 0 6 4 13 9 17 6 3 8 15 6 27 -3 11 -2 18 2 14 3
-3 12 -1 20 6 7 6 16 8 20 5 3 -3 18 0 34 9 16 8 29 12 29 8 0 -4 6 -1 14 5 7
6 21 9 30 5 9 -4 16 -1 16 6 0 7 6 10 14 7 7 -3 18 -1 23 4 5 5 24 13 41 18
31 9 31 9 21 -12 -15 -28 -24 -37 -16 -15 6 18 -20 19 -31 1 -4 -5 -15 -9 -25
-7 -10 1 -14 -2 -11 -8 4 -7 2 -8 -4 -4 -7 4 -12 2 -12 -5 0 -10 -3 -10 -12
-1 -7 7 -17 12 -22 12 -6 0 -3 -7 7 -14 12 -9 14 -16 8 -21 -6 -3 -11 -1 -11
6 0 7 -3 10 -6 7 -3 -4 2 -17 10 -30 9 -14 13 -28 9 -31 -3 -4 -1 -7 5 -7 6 0
10 14 9 32 -1 17 3 33 10 35 8 3 10 -6 7 -25 -3 -18 1 -34 10 -41 17 -14 40
-5 30 11 -5 8 -1 9 12 4 10 -4 15 -4 11 0 -4 4 2 14 13 21 11 8 17 19 14 25
-4 6 -1 9 7 6 8 -3 13 -14 11 -24 -2 -18 -2 -18 12 -1 8 11 12 26 8 35 -5 15
-3 15 11 4 15 -13 15 -16 0 -40 l-15 -27 20 24 c11 14 18 31 15 38 -8 20 28
29 42 10 7 -9 16 -13 20 -9 5 4 5 -1 2 -11 -4 -10 -3 -16 2 -12 5 3 12 -1 14
-7 4 -10 6 -10 6 -1 1 7 -8 22 -19 33 -10 10 -16 21 -12 24 11 7 43 -20 34
-29 -4 -4 3 -1 15 6 16 10 21 19 17 34 -7 20 -6 20 15 1 23 -21 28 -38 10 -33
-19 4 -20 -17 -4 -38 16 -19 16 -19 6 2 -14 28 -14 34 2 30 6 -1 13 5 13 13 3
32 5 34 14 20 7 -12 9 -10 8 7 -2 14 -7 19 -18 15 -12 -4 -12 -2 -3 8 14 15
44 6 39 -12 -1 -7 -1 -10 1 -5 3 4 9 5 14 1 5 -3 9 0 9 6 0 6 6 8 13 4 6 -4 9
-4 5 1 -9 9 9 35 24 35 6 0 5 -7 -2 -15 -7 -8 -9 -15 -4 -15 5 -1 -2 -10 -15
-21 -13 -11 -20 -23 -16 -27 4 -4 10 -2 12 5 2 7 12 9 21 6 13 -4 14 -3 3 5
-9 7 -10 12 -2 16 6 4 9 11 6 16 -8 13 34 38 56 33 10 -3 19 -8 19 -12 0 -3 9
-12 21 -19 16 -10 19 -10 13 -1 -5 9 -2 10 10 6 11 -4 15 -3 11 4 -4 6 -13 8
-20 5 -8 -3 -19 3 -27 11 -11 15 -11 16 5 10 11 -4 16 -3 12 3 -3 6 -2 10 4
10 5 0 11 -3 14 -7 2 -5 2 -2 0 5 -1 8 3 12 9 9 7 -2 12 -11 10 -20 -3 -21 16
-31 32 -18 7 6 16 8 19 4 4 -3 7 -1 7 6 0 7 -7 11 -15 8 -8 -4 -17 -2 -20 3
-4 6 -1 10 4 10 23 0 26 2 35 18 13 23 16 82 5 82 -6 0 -8 -4 -5 -9 4 -5 -2
-8 -11 -7 -10 2 -29 -4 -43 -13 -14 -10 -21 -11 -17 -4 5 7 4 13 -2 13 -14 0
-14 -13 0 -27 9 -9 7 -12 -10 -10 -15 1 -20 6 -16 17 5 11 3 12 -6 3 -6 -6
-19 -9 -28 -6 -12 4 -13 3 -2 -5 9 -7 10 -12 2 -16 -6 -4 -11 -2 -11 4 0 13
-46 6 -66 -10 -7 -7 -12 -17 -11 -22 1 -6 -4 -13 -12 -16 -8 -2 -11 0 -7 6 3
6 1 14 -5 18 -8 5 -9 3 -4 -6 5 -9 2 -10 -14 -5 -20 6 -26 -2 -22 -27 2 -12
-13 -9 -36 7 -21 14 -22 14 -18 -5 3 -14 0 -20 -8 -17 -7 3 -11 9 -10 14 1 5
-5 10 -12 10 -11 0 -12 -4 -4 -13 8 -10 6 -12 -10 -11 -12 1 -21 5 -21 9 0 4
-5 8 -11 8 -5 0 -7 -5 -4 -10 3 -6 1 -11 -4 -11 -6 -1 -15 -2 -21 -3 -14 -2
-41 -42 -33 -50 3 -3 2 -6 -4 -6 -6 0 -16 7 -23 15 -10 12 -16 13 -28 3 -13
-11 -13 -9 1 11 9 14 23 26 32 28 33 7 41 9 63 22 13 7 26 10 29 7 4 -3 12 -1
20 5 7 6 13 9 13 5 0 -4 12 0 28 7 15 8 35 13 45 12 9 -2 17 1 17 6 0 6 5 7
10 4 6 -4 18 -1 27 7 14 11 16 11 9 -1 -6 -9 -5 -12 3 -10 7 3 11 9 9 14 -2 5
20 15 47 22 28 8 59 16 70 20 11 3 30 5 42 5 13 0 21 4 18 8 -9 14 60 18 80 4
18 -13 14 -19 -9 -15 -5 1 -4 -4 3 -12 6 -8 11 -19 10 -23 -3 -19 2 -34 11
-34 5 0 9 5 7 11 -1 6 5 14 13 17 8 2 12 1 8 -3 -4 -4 1 -18 12 -32 14 -18 17
-30 10 -54 -5 -18 -5 -27 1 -24 5 4 9 15 9 26 0 10 6 18 12 16 20 -3 21 38 2
54 -10 8 -15 9 -11 2 10 -16 -5 -24 -19 -9 -11 12 -14 20 -14 37 0 8 -6 7 -17
-2 -15 -12 -16 -12 -10 4 4 10 7 20 7 23 0 7 91 -65 91 -73 2 -18 21 -43 29
-38 5 3 11 -2 13 -10 3 -11 4 -10 3 2 -1 10 -7 17 -13 16 -6 -1 -14 4 -17 12
-4 11 2 15 21 15 14 0 23 -3 20 -7 -4 -3 2 -13 13 -20 16 -12 24 -12 35 -3 17
14 85 -4 85 -23 0 -7 4 -6 10 3 8 13 10 13 10 -2 0 -9 4 -20 10 -23 6 -4 7 1
3 12 -3 10 -3 15 2 11 4 -4 14 0 22 10 8 9 11 11 7 3 -5 -10 -3 -12 5 -7 7 5
10 14 7 22 -7 19 14 18 43 -2 21 -15 24 -15 39 1 10 10 11 15 5 11 -7 -4 -13
-2 -13 3 0 6 -7 11 -15 11 -18 0 -19 12 -3 28 17 17 33 15 19 -2 -14 -16 9
-29 35 -19 14 5 15 3 5 -15 -9 -18 -8 -23 9 -32 13 -7 20 -7 20 0 0 5 -7 10
-15 10 -8 0 -12 6 -9 14 5 12 11 11 39 -5 39 -23 55 -11 31 23 -23 32 -19 47
4 19 11 -13 20 -20 20 -17 0 3 9 -3 20 -14 11 -11 26 -20 33 -20 6 0 4 5 -7
11 -31 18 -60 52 -61 71 -2 21 -15 38 -15 19 0 -7 -5 -9 -11 -5 -8 4 -7 9 2
16 11 8 10 9 -3 4 -23 -7 -50 3 -42 16 3 5 12 4 22 -4 13 -11 14 -11 7 2 -5 8
-10 21 -11 28 -4 21 -7 22 -29 5 -19 -15 -19 -15 5 -8 20 6 23 5 13 -6 -7 -7
-20 -14 -28 -15 -19 -3 -20 25 0 32 8 4 12 10 9 15 -3 5 2 9 10 9 9 0 16 5 16
11 0 5 -5 7 -12 3 -7 -5 -8 -3 -3 5 13 22 30 -11 34 -65 1 -5 21 -23 46 -39
26 -16 49 -34 53 -41 4 -7 14 -14 22 -16 19 -4 40 -24 40 -37 0 -6 5 -11 11
-11 5 0 7 6 4 12 -4 7 0 5 9 -5 13 -17 19 -18 51 -7 20 7 44 13 53 15 9 2 18
4 20 5 1 2 7 4 12 5 6 1 12 4 15 5 3 1 8 3 13 5 4 1 15 5 25 9 10 5 23 3 32
-4 13 -11 14 -10 10 2 -4 10 5 18 32 26 35 11 38 14 41 54 1 23 8 45 14 49 6
4 7 12 3 18 -4 7 -3 17 2 24 5 7 9 25 8 40 -1 20 3 26 13 22 7 -3 16 -5 19 -5
4 0 -2 -10 -13 -21 -19 -22 -19 -22 4 -8 12 8 22 16 22 19 0 11 -18 32 -26 31
-5 -1 -10 8 -10 19 -1 15 3 19 14 15 8 -3 21 0 28 6 10 8 14 8 14 0 0 -6 5
-11 10 -11 6 0 4 10 -5 23 -8 13 -13 26 -10 28 2 3 -6 6 -18 6 -19 2 -20 1 -4
-8 9 -6 17 -15 17 -21 0 -6 -7 -5 -17 3 -17 13 -17 13 -3 -5 13 -17 13 -19 0
-14 -13 4 -17 27 -11 60 2 13 56 -9 56 -23 0 -17 44 -79 45 -63 0 6 -9 19 -20
29 -23 21 -28 44 -5 25 10 -9 15 -9 15 -1 0 6 -5 11 -11 11 -5 0 -7 5 -4 10 4
6 1 9 -6 8 -6 -2 -14 3 -16 10 -3 7 1 10 11 6 11 -4 14 0 13 15 -2 26 -2 26
-26 0 -16 -17 -23 -19 -38 -9 -15 10 -15 11 -1 6 10 -3 21 1 25 8 5 7 19 19
32 26 15 7 21 8 17 1 -4 -6 -3 -11 1 -11 8 0 10 -16 13 -90 1 -16 4 -19 7 -10
3 8 12 19 20 23 8 5 11 16 8 28 -6 18 -5 19 13 8 12 -7 18 -17 16 -21 -3 -4 0
-8 5 -8 6 0 11 3 11 8 0 13 -17 34 -26 32 -5 -1 -10 3 -12 9 -5 16 14 13 28
-4 7 -8 17 -12 23 -8 6 4 8 0 4 -10 -4 -11 -2 -14 9 -10 7 3 14 0 14 -6 0 -6
7 -11 15 -11 8 0 30 -15 48 -34 23 -23 39 -31 48 -26 7 5 17 6 21 4 5 -3 7 -1
6 4 -2 6 1 10 5 10 5 1 17 12 28 27 12 14 25 22 31 19 6 -4 8 -3 5 3 -8 13 57
76 67 66 4 -5 6 -2 4 5 -2 8 11 21 27 31 17 9 31 23 33 31 2 8 8 18 14 21 5 4
3 9 -7 13 -9 3 -13 10 -10 16 3 5 1 10 -6 10 -7 0 -10 3 -6 6 3 4 0 19 -9 35
-15 30 -15 30 21 29 3 0 19 6 35 15 16 8 42 16 57 17 15 1 38 8 51 16 12 8 22
11 22 7 0 -4 7 -2 15 5 8 6 19 9 24 6 5 -4 12 -2 16 4 4 6 11 8 16 5 5 -4 9
-2 9 3 0 5 7 9 15 9 10 0 12 -4 5 -12 -5 -7 -7 -15 -3 -18 12 -13 -13 -7 -26
6 -11 10 -12 9 -6 -2 6 -10 4 -12 -5 -6 -9 5 -11 4 -6 -3 9 -15 -6 -16 -21 -1
-8 8 -14 6 -22 -9 -6 -10 -7 -22 -4 -26 3 -3 2 -6 -4 -6 -17 0 -23 13 -12 27
6 7 9 13 6 13 -2 0 -10 -6 -16 -14 -9 -11 -8 -18 5 -30 15 -16 17 -16 29 0 8
12 14 14 19 6 4 -7 2 -12 -3 -12 -6 0 -11 -10 -10 -22 0 -22 1 -22 10 2 9 23
11 23 20 8 11 -20 29 -24 29 -6 0 6 -3 9 -6 5 -7 -6 -54 45 -54 59 0 4 11 -3
26 -17 22 -21 24 -21 18 -4 -4 11 -4 17 1 13 12 -11 47 11 39 24 -5 7 -2 9 9
5 9 -3 19 -1 23 5 4 7 3 8 -4 4 -7 -4 -12 -1 -12 7 0 10 7 13 20 10 30 -8 25
-20 -20 -49 -22 -15 -39 -31 -38 -36 2 -5 6 -8 10 -6 3 2 16 -8 27 -22 l22
-25 -17 27 c-9 15 -20 25 -25 22 -5 -3 -9 0 -9 5 0 6 4 11 9 11 5 0 24 12 42
27 31 27 32 27 24 4 -5 -16 -4 -21 4 -17 6 4 11 14 11 22 0 8 5 14 11 14 5 0
8 -4 5 -9 -3 -5 1 -14 9 -21 10 -9 15 -9 15 -1 0 6 -4 11 -8 11 -5 0 -9 6 -9
14 0 8 9 14 19 13 13 -1 17 -7 13 -22 -5 -18 -5 -18 5 -2 12 19 4 41 -11 32
-5 -4 -9 1 -9 10 0 10 5 13 12 9 7 -4 8 -3 4 5 -6 8 -15 4 -32 -15 -14 -14
-28 -23 -32 -19 -4 4 2 13 12 21 11 8 15 14 10 14 -6 0 -15 -5 -22 -12 -9 -9
-12 -9 -12 0 0 7 6 13 13 14 6 0 17 2 22 2 6 1 16 5 23 10 7 4 16 5 19 2 3 -3
14 -1 23 4 13 7 21 5 30 -5 11 -13 9 -15 -11 -13 -19 2 -23 -1 -21 -17 2 -11
3 -29 3 -40 0 -19 1 -19 10 -2 8 13 7 22 -2 33 -19 24 -2 28 22 5 12 -11 26
-18 31 -15 4 3 8 -3 9 -13 0 -11 3 -13 6 -5 6 15 -16 44 -28 36 -10 -6 -12 9
-2 19 3 4 15 -1 26 -10 11 -10 17 -13 14 -7 -9 15 19 38 34 28 8 -4 9 -3 5 4
-4 7 -2 12 3 12 6 0 11 5 11 11 0 5 -4 7 -10 4 -5 -3 -10 2 -10 11 0 10 3 14
7 11 3 -4 12 -2 19 4 19 16 45 4 37 -17 -4 -12 -3 -15 6 -10 6 4 9 16 6 27 -5
14 -3 17 9 13 9 -3 13 -11 9 -17 -3 -6 -1 -7 5 -3 6 4 9 13 5 21 -3 10 2 15
16 16 20 1 32 4 49 9 4 1 10 2 15 1 4 0 7 4 7 10 0 5 4 8 8 5 16 -10 80 54
106 106 l26 52 0 1041 c0 1113 0 1104 -49 1177 -25 36 -124 112 -181 140 -63
31 -168 18 -391 -48 -15 -4 -17 11 -21 123 -5 162 -22 202 -120 284 -104 86
-178 98 -343 53z m752 -3035 c-13 -10 -24 -13 -28 -8 -3 6 -12 9 -19 7 -7 -2
-15 3 -17 10 -3 8 1 10 13 5 13 -5 15 -3 9 7 -6 10 -4 12 7 8 8 -4 21 -2 29 2
23 15 29 -12 6 -31z m-963 -314 c3 -8 1 -15 -4 -15 -6 0 -10 7 -10 15 0 8 2
15 4 15 2 0 6 -7 10 -15z m13 -39 c-12 -18 -13 -26 -4 -29 6 -2 9 -8 5 -12
-11 -12 -21 1 -23 28 -1 12 5 27 14 34 23 17 26 7 8 -21z m-720 -308 c-1 -10
-8 -18 -15 -18 -9 0 -12 6 -7 18 5 14 4 15 -7 4 -11 -12 -9 -16 9 -29 21 -14
22 -43 1 -43 -6 0 -8 7 -5 15 10 25 -14 29 -37 6 l-21 -22 25 -19 c14 -11 21
-20 15 -20 -5 0 -21 9 -33 19 -22 16 -23 19 -8 34 9 8 16 20 16 26 0 6 4 11 9
11 5 0 11 9 14 19 6 26 46 24 44 -1z m-551 -14 c-3 -8 -2 -12 4 -9 6 3 10 2
10 -4 0 -17 -15 -20 -35 -5 -16 12 -17 14 -2 14 9 0 17 5 17 10 0 6 3 10 6 10
3 0 3 -7 0 -16z m28 -27 c-8 -21 -49 -38 -62 -25 -6 6 -20 4 -42 -7 -17 -9
-37 -14 -43 -12 -7 2 -20 0 -29 -5 -13 -6 -18 -5 -18 4 0 6 -14 -1 -31 -18
-29 -28 -31 -28 -44 -10 -19 25 -9 39 16 25 21 -11 54 5 44 22 -3 4 2 12 12
18 10 5 21 11 24 13 3 1 13 -3 22 -10 8 -7 18 -9 21 -4 6 11 75 10 92 -1 16
-10 36 17 28 39 -5 17 -4 17 5 2 6 -9 9 -23 5 -31z m556 39 c0 -11 -19 -15
-25 -6 -3 5 1 10 9 10 9 0 16 -2 16 -4z m25 -38 c-4 -12 0 -27 11 -39 26 -29
12 -32 -26 -7 -18 13 -35 33 -37 46 -2 13 1 21 5 18 4 -2 14 -1 22 4 20 12 32
2 25 -22z m-455 -50 c0 -16 -3 -19 -11 -11 -6 6 -8 16 -5 22 11 17 16 13 16
-11z m-165 -8 c3 -5 1 -10 -4 -10 -6 0 -11 5 -11 10 0 6 2 10 4 10 3 0 8 -4
11 -10z m280 0 c3 -5 2 -10 -4 -10 -5 0 -13 5 -16 10 -3 6 -2 10 4 10 5 0 13
-4 16 -10z m-555 -20 c-6 -4 -8 -15 -3 -26 6 -17 5 -17 -10 -5 -12 9 -14 17
-7 26 5 6 7 15 3 19 -4 4 1 4 11 0 11 -4 14 -9 6 -14z m-64 -36 c13 -3 21 -10
18 -16 -3 -5 -15 -3 -29 6 -12 8 -26 12 -29 9 -3 -4 -18 -7 -32 -8 -21 -1 -23
1 -10 11 9 6 13 14 9 17 -3 4 4 5 16 2 11 -2 22 1 22 8 1 7 3 4 6 -5 2 -10 15
-21 29 -24z m12 28 c13 11 14 11 10 -2 -6 -18 -30 -20 -34 -2 -1 7 0 8 3 2 3
-7 10 -7 21 2z m-172 -47 c13 8 24 14 25 13 0 -2 2 -13 3 -25 2 -18 0 -20 -11
-11 -10 8 -17 8 -25 0 -7 -7 -8 -12 -2 -12 5 0 -4 -9 -20 -19 -17 -11 -35 -17
-40 -14 -6 4 -4 -2 4 -12 13 -16 13 -18 0 -13 -10 3 -15 18 -15 42 -1 45 6 52
24 24 12 -19 11 -20 -6 -14 -14 6 -15 4 -6 -5 13 -13 37 -3 28 12 -4 5 -1 9 5
9 6 0 8 5 4 11 -4 8 -9 7 -15 -2 -10 -17 -12 -7 -3 16 7 16 8 16 16 0 9 -15
12 -15 34 0z m-283 -57 c5 -16 -32 -70 -43 -63 -5 3 -7 12 -4 20 4 8 9 13 13
10 4 -2 8 2 8 10 0 8 -4 15 -9 15 -4 0 -8 -6 -8 -12 0 -9 -4 -8 -10 2 -7 11
-4 17 13 22 33 9 35 9 40 -4z m-53 -34 c0 -16 -22 -44 -31 -39 -5 4 -7 10 -4
15 11 18 -30 20 -45 2 -8 -11 -23 -18 -32 -17 -9 2 -19 -4 -22 -12 -3 -8 -10
-11 -16 -8 -20 13 20 53 61 60 21 4 41 11 45 16 5 9 44 -6 44 -17z m190 16 c0
-5 -2 -10 -4 -10 -3 0 -8 5 -11 10 -3 6 -1 10 4 10 6 0 11 -4 11 -10z m-240
-40 c0 -5 -2 -10 -4 -10 -3 0 -8 5 -11 10 -3 6 -1 10 4 10 6 0 11 -4 11 -10z
m-136 -42 c-3 -4 1 -8 8 -8 10 0 10 -2 0 -9 -8 -4 -13 -12 -12 -17 1 -5 -3
-10 -10 -12 -13 -5 -9 20 5 30 6 5 5 8 -2 8 -7 0 -13 4 -13 8 0 5 7 9 15 9 8
0 12 -4 9 -9z m-64 -20 c0 -5 4 -6 10 -3 6 3 7 -1 4 -9 -8 -20 -7 -20 -27 2
-15 16 -15 19 -2 19 8 0 15 -4 15 -9z m-86 -24 c3 -8 2 -12 -4 -9 -6 3 -10 1
-10 -6 0 -7 -2 -10 -5 -7 -5 5 4 38 10 38 2 0 6 -7 9 -16z m86 -6 c17 -12 30
-29 30 -37 -1 -14 -2 -14 -13 -1 -24 29 -58 55 -53 39 7 -16 -10 -47 -19 -37
-4 4 -3 13 1 20 5 7 9 16 10 21 3 15 4 17 9 17 3 0 19 -10 35 -22z"/>
<path d="M4425 1680 c-3 -6 1 -7 9 -4 18 7 21 14 7 14 -6 0 -13 -4 -16 -10z"/>
<path d="M2060 950 c-16 -10 -15 -11 38 -15 29 -2 31 -1 15 10 -10 8 -19 9
-21 4 -2 -5 -8 -9 -13 -9 -6 0 -7 5 -4 10 8 12 4 12 -15 0z"/>
<path d="M2811 971 c-10 -7 -11 -12 -1 -27 8 -14 10 -14 7 -3 -3 9 0 22 6 28
13 13 7 14 -12 2z"/>
<path d="M1413 765 c0 -8 4 -12 9 -9 5 3 6 10 3 15 -9 13 -12 11 -12 -6z"/>
<path d="M1334 748 c-4 -7 -4 -10 1 -6 4 4 15 2 24 -5 14 -11 14 -10 2 6 -16
20 -18 21 -27 5z"/>
<path d="M1280 731 c-8 -6 -19 -7 -25 -4 -5 4 -6 2 -2 -2 13 -15 35 -14 41 1
6 16 6 17 -14 5z"/>
<path d="M4636 1742 c-3 -5 1 -9 9 -9 8 0 12 4 9 9 -3 4 -7 8 -9 8 -2 0 -6 -4
-9 -8z"/>
<path d="M4670 1745 c0 -7 30 -13 34 -7 3 4 -4 9 -15 9 -10 1 -19 0 -19 -2z"/>
<path d="M4595 1731 c-3 -5 0 -13 6 -17 7 -4 9 -3 5 4 -3 5 0 13 6 15 9 4 10
6 1 6 -6 1 -14 -3 -18 -8z"/>
<path d="M4505 1710 c-3 -5 -4 -14 0 -19 3 -5 1 -12 -5 -16 -5 -3 -10 -11 -10
-18 0 -22 21 10 24 37 3 28 1 32 -9 16z"/>
<path d="M4574 1699 c-3 -6 -1 -16 5 -22 9 -9 10 -7 5 7 -6 15 -4 17 6 11 9
-5 11 -4 6 3 -9 15 -13 15 -22 1z"/>
<path d="M4626 1696 c5 -12 4 -17 -3 -13 -5 3 -10 -1 -10 -9 0 -13 2 -13 16 0
12 13 13 18 2 28 -10 11 -11 9 -5 -6z"/>
<path d="M4690 1699 c0 -5 5 -7 10 -4 6 3 10 8 10 11 0 2 -4 4 -10 4 -5 0 -10
-5 -10 -11z"/>
<path d="M4531 1673 c-1 -18 13 -23 29 -11 12 8 12 9 -2 5 -9 -3 -19 -1 -22 6
-3 9 -5 9 -5 0z"/>
<path d="M4580 1652 c0 -6 5 -14 10 -17 6 -4 8 -10 6 -14 -3 -4 1 -8 9 -8 12
0 12 4 -2 21 -10 12 -19 23 -20 25 -2 2 -3 -1 -3 -7z"/>
<path d="M4452 1633 c3 -18 45 -26 55 -10 3 6 1 7 -5 3 -7 -4 -12 -2 -12 5 0
8 -5 7 -17 -2 -15 -12 -16 -12 -10 4 3 9 2 17 -4 17 -6 0 -9 -8 -7 -17z"/>
<path d="M4515 1640 c3 -5 8 -10 11 -10 2 0 4 5 4 10 0 6 -5 10 -11 10 -5 0
-7 -4 -4 -10z"/>
<path d="M4550 1630 c-6 -11 -8 -20 -6 -20 3 0 10 9 16 20 6 11 8 20 6 20 -3
0 -10 -9 -16 -20z"/>
<path d="M4515 1609 c-4 -6 -5 -12 -2 -15 2 -3 7 2 10 11 7 17 1 20 -8 4z"/>
<path d="M4387 1599 c7 -9 10 -19 6 -22 -3 -4 -1 -7 5 -7 17 0 15 16 -5 31
-16 12 -17 12 -6 -2z"/>
<path d="M4440 1596 c0 -8 4 -17 9 -20 5 -4 7 3 4 14 -6 23 -13 26 -13 6z"/>
<path d="M4017 1563 c-4 -3 -2 -12 4 -20 7 -8 8 -13 1 -13 -5 0 -15 6 -22 14
-6 8 -17 13 -24 10 -19 -7 -16 -41 5 -60 19 -17 20 -17 13 1 -5 12 -4 16 3 12
6 -4 19 0 27 9 9 8 16 12 16 8 0 -5 5 -3 12 4 9 9 9 15 -1 25 -10 10 -11 8 -5
-8 7 -18 6 -18 -9 -6 -9 7 -14 17 -11 22 6 10 0 12 -9 2z m-7 -42 c0 -4 -9 -7
-20 -8 -11 -1 -20 2 -20 8 0 5 5 9 11 9 5 0 7 6 3 13 -5 8 -2 8 9 -2 9 -7 17
-16 17 -20z"/>
<path d="M4220 1559 c-12 -9 -12 -10 3 -5 15 5 17 2 12 -17 -5 -20 -5 -20 6
-4 14 23 0 40 -21 26z"/>
<path d="M4280 1550 c6 -11 12 -20 14 -20 2 0 2 9 -1 20 -3 11 -9 20 -15 20
-5 0 -4 -9 2 -20z"/>
<path d="M4341 1559 c17 -11 39 -12 39 -1 0 4 -12 8 -27 9 -19 1 -22 -1 -12
-8z"/>
<path d="M4555 1549 c-4 -6 -5 -12 -2 -15 2 -3 7 2 10 11 7 17 1 20 -8 4z"/>
<path d="M4320 1540 c-9 -6 -10 -10 -3 -10 6 0 15 5 18 10 8 12 4 12 -15 0z"/>
<path d="M4485 1540 c-3 -6 1 -7 9 -4 18 7 21 14 7 14 -6 0 -13 -4 -16 -10z"/>
<path d="M3915 1532 c-3 -3 -5 -10 -5 -16 0 -6 4 -5 9 3 5 8 11 9 15 3 3 -6 2
-13 -3 -17 -12 -7 -3 -35 11 -35 6 0 5 6 -2 15 -19 23 4 18 25 -5 18 -19 17
-20 -6 -21 -13 0 -18 -3 -11 -6 7 -3 20 -2 28 1 13 5 12 11 -10 37 -14 17 -24
34 -22 38 6 8 -21 11 -29 3z"/>
<path d="M4070 1521 c0 -5 5 -13 10 -16 6 -3 10 -2 10 4 0 5 -4 13 -10 16 -5
3 -10 2 -10 -4z"/>
<path d="M4273 1515 c0 -8 4 -12 9 -9 5 3 6 10 3 15 -9 13 -12 11 -12 -6z"/>
<path d="M4340 1526 c0 -2 8 -10 18 -17 15 -13 16 -12 3 4 -13 16 -21 21 -21
13z"/>
<path d="M4430 1520 c0 -5 5 -10 11 -10 5 0 7 5 4 10 -3 6 -8 10 -11 10 -2 0
-4 -4 -4 -10z"/>
<path d="M4028 1497 c-10 -8 -13 -18 -9 -26 6 -9 10 -7 14 8 3 12 10 21 16 21
6 0 10 -3 9 -7 -2 -5 0 -9 5 -10 16 -6 19 -2 7 12 -15 18 -20 18 -42 2z"/>
<path d="M4179 1508 c-10 -33 6 -46 28 -24 4 4 1 6 -7 4 -8 -1 -14 3 -12 10 2
10 -6 19 -9 10z"/>
<path d="M4120 1486 c0 -2 7 -9 15 -16 13 -11 14 -10 9 4 -5 14 -24 23 -24 12z"/>
<path d="M3996 1453 c-4 -10 0 -23 11 -32 15 -15 16 -15 5 0 -7 9 -10 24 -6
33 3 9 4 16 1 16 -3 0 -8 -8 -11 -17z"/>
<path d="M4037 1455 c-6 -13 -2 -54 6 -61 2 -2 3 14 3 36 0 44 -1 47 -9 25z"/>
<path d="M4236 1462 c-3 -5 1 -9 9 -9 8 0 12 4 9 9 -3 4 -7 8 -9 8 -2 0 -6 -4
-9 -8z"/>
<path d="M4113 1433 c0 -9 4 -10 14 -2 7 6 13 12 13 14 0 1 -6 2 -13 2 -8 0
-14 -6 -14 -14z"/>
<path d="M3947 1407 c-3 -8 0 -14 7 -14 7 0 13 6 13 14 0 7 -4 13 -8 13 -4 0
-9 -6 -12 -13z"/>
<path d="M3935 1371 c-3 -5 -2 -12 3 -15 5 -3 9 1 9 9 0 17 -3 19 -12 6z"/>
<path d="M4036 1367 c3 -10 9 -15 12 -12 3 3 0 11 -7 18 -10 9 -11 8 -5 -6z"/>
<path d="M3885 1359 c-3 -4 2 -6 10 -5 21 3 28 13 10 13 -9 0 -18 -4 -20 -8z"/>
<path d="M3839 1328 c-5 -18 -6 -38 -1 -34 7 8 12 36 6 36 -2 0 -4 -1 -5 -2z"/>
<path d="M3890 1299 c0 -5 5 -7 10 -4 6 3 10 8 10 11 0 2 -4 4 -10 4 -5 0 -10
-5 -10 -11z"/>
<path d="M3540 1241 c-14 -21 -17 -29 -7 -25 8 3 17 14 20 25 3 10 10 19 17
19 6 0 9 -4 5 -9 -3 -6 5 -15 17 -21 22 -11 22 -11 3 5 -11 9 -19 19 -17 23 2
3 -1 8 -6 10 -6 2 -20 -11 -32 -27z"/>
<path d="M3510 1250 c0 -5 5 -10 10 -10 6 0 10 5 10 10 0 6 -4 10 -10 10 -5 0
-10 -4 -10 -10z"/>
<path d="M3490 1238 c0 -9 5 -20 10 -23 13 -8 13 5 0 25 -8 13 -10 13 -10 -2z"/>
<path d="M3615 1240 c3 -5 8 -10 11 -10 2 0 4 5 4 10 0 6 -5 10 -11 10 -5 0
-7 -4 -4 -10z"/>
<path d="M3621 1212 c-1 -7 -5 -11 -10 -7 -5 3 -12 1 -15 -4 -4 -5 2 -8 11 -6
10 1 23 -1 29 -6 7 -5 11 -3 11 6 0 8 -4 12 -8 9 -4 -2 -10 2 -12 8 -4 10 -6
10 -6 0z"/>
<path d="M3390 1195 c0 -8 4 -15 8 -15 5 0 9 7 9 15 0 8 -4 15 -9 15 -4 0 -8
-7 -8 -15z"/>
<path d="M3420 1196 c0 -8 5 -18 12 -22 7 -5 5 -11 -7 -21 -15 -10 -16 -15 -6
-26 7 -6 12 -7 11 -2 -5 22 1 29 10 15 8 -12 9 -10 7 7 -2 12 -6 26 -10 29
-17 17 -5 25 13 9 11 -10 20 -15 20 -10 0 9 -31 34 -42 35 -5 0 -8 -6 -8 -14z"/>
<path d="M3481 1194 c0 -11 3 -14 6 -6 3 7 2 16 -1 19 -3 4 -6 -2 -5 -13z"/>
<path d="M3535 1200 c-3 -5 -1 -10 4 -10 6 0 11 5 11 10 0 6 -2 10 -4 10 -3 0
-8 -4 -11 -10z"/>
<path d="M3510 1191 c0 -10 19 -25 25 -20 1 2 -3 10 -11 17 -8 7 -14 8 -14 3z"/>
<path d="M3566 1165 c-18 -14 -18 -14 1 -12 11 0 20 7 20 14 0 7 -1 13 -1 13
-1 0 -9 -7 -20 -15z"/>
<path d="M3623 1162 c10 -10 14 -22 10 -27 -5 -4 -2 -5 5 -1 11 6 10 12 -4 27
-9 10 -19 19 -22 19 -3 0 2 -8 11 -18z"/>
<path d="M3490 1162 c0 -5 7 -9 15 -9 8 0 12 4 9 9 -3 4 -9 8 -15 8 -5 0 -9
-4 -9 -8z"/>
<path d="M3396 1121 c4 -14 2 -21 -4 -17 -5 3 -17 -5 -26 -19 -19 -28 -20 -35
-6 -35 6 0 9 3 8 8 -3 14 14 42 22 37 15 -9 22 14 10 32 -9 15 -10 14 -4 -6z"/>
<path d="M3481 1124 c0 -11 3 -14 6 -6 3 7 2 16 -1 19 -3 4 -6 -2 -5 -13z"/>
<path d="M3360 1115 c-7 -9 -11 -17 -9 -20 3 -2 10 5 17 15 14 24 10 26 -8 5z"/>
<path d="M3452 1121 c-11 -7 -11 -9 0 -14 9 -3 15 1 15 9 0 8 -1 14 -1 14 -1
0 -7 -4 -14 -9z"/>
<path d="M3511 1107 c-8 -10 -7 -14 2 -14 8 0 14 6 14 14 0 7 -1 13 -2 13 -2
0 -8 -6 -14 -13z"/>
<path d="M3575 1100 c3 -5 8 -10 11 -10 2 0 4 5 4 10 0 6 -5 10 -11 10 -5 0
-7 -4 -4 -10z"/>
<path d="M3495 1071 c-3 -5 -2 -12 3 -15 5 -3 9 1 9 9 0 17 -3 19 -12 6z"/>
<path d="M3426 1058 c3 -5 10 -6 15 -3 13 9 11 12 -6 12 -8 0 -12 -4 -9 -9z"/>
<path d="M3355 1021 c-3 -5 -2 -12 3 -15 5 -3 9 1 9 9 0 17 -3 19 -12 6z"/>
<path d="M2883 975 c0 -7 7 -11 15 -7 9 3 13 1 9 -4 -8 -13 1 -24 40 -52 18
-12 30 -17 28 -10 -3 7 -19 21 -36 30 -17 10 -28 22 -24 27 3 6 -3 14 -13 20
-14 7 -19 6 -19 -4z"/>
<path d="M2265 940 c-3 -5 -1 -19 5 -30 8 -15 18 -19 37 -16 38 7 41 17 4 12
-25 -3 -31 0 -27 11 4 9 2 11 -6 7 -8 -5 -9 -2 -5 9 7 18 2 23 -8 7z"/>
<path d="M1936 928 c3 -5 10 -6 15 -3 13 9 11 12 -6 12 -8 0 -12 -4 -9 -9z"/>
<path d="M2308 923 c7 -3 16 -2 19 1 4 3 -2 6 -13 5 -11 0 -14 -3 -6 -6z"/>
<path d="M2879 900 c-1 -5 -2 -18 -3 -27 -1 -10 -5 -25 -10 -33 -7 -12 -6 -13
4 -3 13 12 24 73 14 73 -2 0 -5 -4 -5 -10z"/>
<path d="M2083 893 c-16 -6 12 -36 38 -40 22 -3 34 13 18 23 -7 4 -9 3 -5 -4
4 -7 -1 -10 -14 -9 -10 1 -22 8 -25 15 -4 10 0 12 10 8 9 -3 13 -2 10 4 -7 11
-13 11 -32 3z"/>
<path d="M2506 885 c-11 -8 -16 -15 -10 -15 5 0 18 7 28 15 11 8 16 15 10 15
-5 0 -18 -7 -28 -15z"/>
<path d="M2676 885 c-3 -8 -1 -15 4 -15 6 0 10 7 10 15 0 8 -2 15 -4 15 -2 0
-6 -7 -10 -15z"/>
<path d="M1775 879 c-4 -6 -14 -8 -24 -4 -13 5 -14 4 -3 -6 10 -11 15 -10 29
4 10 9 14 17 11 17 -4 0 -10 -5 -13 -11z"/>
<path d="M2233 873 c0 -10 4 -10 16 -1 9 7 18 13 20 15 2 1 -5 1 -16 0 -11 0
-20 -7 -20 -14z"/>
<path d="M2390 880 c0 -5 5 -10 10 -10 6 0 10 5 10 10 0 6 -4 10 -10 10 -5 0
-10 -4 -10 -10z"/>
<path d="M2540 880 c-8 -5 -10 -10 -5 -10 6 0 17 5 25 10 8 5 11 10 5 10 -5 0
-17 -5 -25 -10z"/>
<path d="M2750 880 c0 -5 5 -10 10 -10 6 0 10 5 10 10 0 6 -4 10 -10 10 -5 0
-10 -4 -10 -10z"/>
<path d="M2915 881 c-3 -5 -2 -12 3 -15 5 -3 9 1 9 9 0 17 -3 19 -12 6z"/>
<path d="M2187 868 c-13 -10 -14 -17 -6 -28 9 -13 10 -12 5 3 -5 15 5 22 27
18 5 -1 6 3 2 9 -8 13 -8 13 -28 -2z"/>
<path d="M2264 864 c-18 -14 -18 -15 4 -4 12 6 22 13 22 15 0 8 -5 6 -26 -11z"/>
<path d="M2074 841 c1 -17 5 -33 8 -36 3 -3 4 8 3 25 -1 17 -5 33 -8 36 -3 3
-5 -8 -3 -25z"/>
<path d="M2294 858 c-4 -7 -4 -10 1 -6 4 4 14 1 22 -7 8 -8 19 -15 25 -15 6 0
9 1 7 3 -2 1 -14 10 -26 20 -17 15 -23 16 -29 5z"/>
<path d="M2374 862 c3 -5 1 -12 -6 -14 -8 -3 -9 -6 -1 -11 6 -4 13 0 17 8 3 8
0 17 -6 21 -6 4 -8 3 -4 -4z"/>
<path d="M2415 859 c-4 -6 -5 -12 -2 -15 2 -3 7 2 10 11 7 17 1 20 -8 4z"/>
<path d="M2574 862 c4 -7 3 -12 -1 -12 -5 0 -18 -7 -29 -16 -10 -8 -13 -13 -6
-9 7 4 21 1 30 -6 14 -11 15 -11 5 1 -10 10 -9 16 4 25 13 10 13 14 3 20 -9 5
-11 4 -6 -3z"/>
<path d="M2662 848 c7 -13 11 -27 10 -31 -1 -5 2 -6 8 -2 6 4 4 15 -6 31 -20
30 -29 32 -12 2z"/>
<path d="M2713 854 c0 -8 4 -14 9 -14 4 0 8 5 8 11 0 5 6 7 13 3 6 -4 8 -3 4
1 -13 15 -34 14 -34 -1z"/>
<path d="M2780 866 c0 -2 9 -6 20 -9 11 -3 18 -1 14 4 -5 9 -34 13 -34 5z"/>
<path d="M2435 851 c-3 -5 0 -13 6 -17 7 -4 9 -3 5 4 -3 5 0 13 6 15 9 4 10 6
1 6 -6 1 -14 -3 -18 -8z"/>
<path d="M2469 843 c-10 -12 -10 -15 -1 -9 7 4 20 2 30 -6 16 -12 16 -11 2 7
-8 11 -15 21 -16 23 -1 1 -7 -5 -15 -15z"/>
<path d="M2515 850 c3 -5 8 -10 11 -10 2 0 4 5 4 10 0 6 -5 10 -11 10 -5 0 -7
-4 -4 -10z"/>
<path d="M2205 840 c-3 -6 1 -7 9 -4 18 7 21 14 7 14 -6 0 -13 -4 -16 -10z"/>
<path d="M2776 838 c3 -5 10 -6 15 -3 13 9 11 12 -6 12 -8 0 -12 -4 -9 -9z"/>
<path d="M2108 833 c7 -3 16 -2 19 1 4 3 -2 6 -13 5 -11 0 -14 -3 -6 -6z"/>
<path d="M2615 829 c-4 -6 -5 -12 -2 -15 2 -3 7 2 10 11 7 17 1 20 -8 4z"/>
<path d="M1802 810 c7 -11 16 -20 20 -20 5 0 3 9 -4 20 -7 11 -16 20 -20 20
-5 0 -3 -9 4 -20z"/>
<path d="M1956 815 c-9 -26 -7 -32 5 -12 6 10 9 21 6 23 -2 3 -7 -2 -11 -11z"/>
<path d="M2148 812 c4 -11 1 -13 -8 -7 -9 5 -11 4 -6 -3 10 -16 14 -15 25 6 7
14 6 19 -4 19 -7 0 -11 -7 -7 -15z"/>
<path d="M2636 822 c-3 -5 1 -9 9 -9 8 0 12 4 9 9 -3 4 -7 8 -9 8 -2 0 -6 -4
-9 -8z"/>
<path d="M1990 810 c-9 -6 -10 -10 -3 -10 7 0 10 -9 8 -21 -3 -12 -1 -19 2
-15 6 5 14 57 9 56 -1 0 -8 -5 -16 -10z"/>
<path d="M2213 807 c0 -8 12 -13 27 -13 15 0 27 5 27 13 0 9 -4 10 -14 2 -9
-8 -17 -8 -26 0 -10 8 -14 7 -14 -2z"/>
<path d="M2053 795 c0 -8 4 -12 9 -9 5 3 6 10 3 15 -9 13 -12 11 -12 -6z"/>
<path d="M2385 800 c-3 -6 1 -7 9 -4 18 7 21 14 7 14 -6 0 -13 -4 -16 -10z"/>
<path d="M2553 795 c0 -8 4 -12 9 -9 5 3 6 10 3 15 -9 13 -12 11 -12 -6z"/>
<path d="M2435 791 c-3 -5 -2 -12 3 -15 5 -3 9 1 9 9 0 17 -3 19 -12 6z"/>
<path d="M1795 781 c3 -5 -1 -11 -7 -14 -7 -2 -11 -7 -8 -10 3 -3 13 0 23 8
16 11 16 13 2 19 -9 3 -14 2 -10 -3z"/>
<path d="M1895 780 c-3 -6 1 -13 9 -16 9 -3 13 -11 9 -17 -4 -6 -1 -7 7 -2 10
6 10 11 -3 20 -9 7 -14 15 -10 18 3 4 4 7 0 7 -3 0 -9 -5 -12 -10z"/>
<path d="M1960 780 c-9 -6 -10 -10 -3 -10 6 0 15 5 18 10 8 12 4 12 -15 0z"/>
<path d="M1715 761 c3 -5 0 -11 -7 -13 -7 -3 -5 -7 6 -11 9 -4 15 -3 11 2 -3
5 0 11 7 13 7 3 5 7 -6 11 -9 4 -15 3 -11 -2z"/>
<path d="M1860 760 c-9 -6 -10 -10 -3 -10 6 0 15 5 18 10 8 12 4 12 -15 0z"/>
<path d="M2130 739 c0 -5 5 -7 10 -4 6 3 10 8 10 11 0 2 -4 4 -10 4 -5 0 -10
-5 -10 -11z"/>
<path d="M2335 740 c3 -5 8 -10 11 -10 2 0 4 5 4 10 0 6 -5 10 -11 10 -5 0 -7
-4 -4 -10z"/>
<path d="M2413 735 c0 -8 4 -12 9 -9 5 3 6 10 3 15 -9 13 -12 11 -12 -6z"/>
<path d="M1535 730 c3 -5 8 -10 11 -10 2 0 4 5 4 10 0 6 -5 10 -11 10 -5 0 -7
-4 -4 -10z"/>
<path d="M1580 719 c0 -5 5 -7 10 -4 6 3 10 8 10 11 0 2 -4 4 -10 4 -5 0 -10
-5 -10 -11z"/>
<path d="M1610 722 c0 -4 10 -9 22 -9 18 -2 20 0 8 7 -18 12 -30 13 -30 2z"/>
<path d="M1690 720 c0 -5 5 -10 10 -10 6 0 10 5 10 10 0 6 -4 10 -10 10 -5 0
-10 -4 -10 -10z"/>
<path d="M1866 722 c-3 -5 1 -9 9 -9 8 0 12 4 9 9 -3 4 -7 8 -9 8 -2 0 -6 -4
-9 -8z"/>
<path d="M1560 711 c0 -6 4 -13 10 -16 6 -3 7 1 4 9 -7 18 -14 21 -14 7z"/>
<path d="M1815 711 c-3 -5 -2 -12 3 -15 5 -3 9 1 9 9 0 17 -3 19 -12 6z"/>
<path d="M1667 699 c7 -9 10 -19 6 -22 -3 -4 -1 -7 5 -7 17 0 15 16 -5 31 -16
12 -17 12 -6 -2z"/>
<path d="M1470 690 c8 -5 20 -10 25 -10 6 0 3 5 -5 10 -8 5 -19 10 -25 10 -5
0 -3 -5 5 -10z"/>
<path d="M1595 691 c-3 -5 -2 -12 3 -15 5 -3 9 1 9 9 0 17 -3 19 -12 6z"/>
<path d="M1430 680 c-13 -8 -12 -10 3 -10 9 0 17 5 17 10 0 12 -1 12 -20 0z"/>
<path d="M1710 680 c0 -5 5 -10 11 -10 5 0 7 5 4 10 -3 6 -8 10 -11 10 -2 0
-4 -4 -4 -10z"/>
<path d="M1455 660 c-3 -6 1 -7 9 -4 18 7 21 14 7 14 -6 0 -13 -4 -16 -10z"/>
<path d="M1587 659 c7 -7 15 -10 18 -7 3 3 -2 9 -12 12 -14 6 -15 5 -6 -5z"/>
<path d="M1293 648 c5 -17 30 -17 33 0 1 7 0 8 -3 2 -2 -5 -9 -10 -14 -10 -6
0 -7 5 -4 10 3 6 1 10 -5 10 -7 0 -10 -6 -7 -12z"/>
<path d="M1414 649 c1 -7 10 -13 19 -15 9 -1 15 2 11 7 -3 5 -9 7 -14 4 -4 -3
-11 0 -13 5 -3 6 -4 5 -3 -1z"/>
<path d="M1354 639 c-3 -6 -1 -16 5 -22 9 -9 10 -7 5 7 -5 13 -4 17 4 12 7 -4
12 -2 12 3 0 14 -17 14 -26 0z"/>
<path d="M1276 627 c3 -10 9 -15 12 -12 3 3 0 11 -7 18 -10 9 -11 8 -5 -6z"/>
<path d="M1213 623 c9 -14 46 -23 52 -14 2 4 -1 8 -8 8 -7 0 -21 4 -31 9 -13
5 -17 4 -13 -3z"/>
<path d="M676 598 c3 -5 10 -6 15 -3 13 9 11 12 -6 12 -8 0 -12 -4 -9 -9z"/>
<path d="M855 600 c-3 -5 -1 -10 4 -10 6 0 11 5 11 10 0 6 -2 10 -4 10 -3 0
-8 -4 -11 -10z"/>
<path d="M1180 606 c0 -2 7 -6 15 -10 8 -3 15 -1 15 4 0 6 -7 10 -15 10 -8 0
-15 -2 -15 -4z"/>
<path d="M1297 595 c-3 -6 3 -11 12 -11 10 0 18 5 18 11 0 7 -6 12 -13 12 -7
0 -15 -5 -17 -12z"/>
<path d="M1390 606 c0 -2 7 -7 16 -10 8 -3 12 -2 9 4 -6 10 -25 14 -25 6z"/>
<path d="M823 586 c0 -8 5 -12 10 -9 7 4 8 -1 3 -13 -6 -15 -5 -17 5 -6 11 10
10 15 -2 28 -14 13 -16 13 -16 0z"/>
<path d="M871 577 c-13 -21 -12 -21 5 -5 10 10 16 20 13 22 -3 3 -11 -5 -18
-17z"/>
<path d="M748 583 c7 -3 16 -2 19 1 4 3 -2 6 -13 5 -11 0 -14 -3 -6 -6z"/>
<path d="M935 570 c-4 -6 1 -7 11 -3 13 5 15 3 9 -7 -5 -9 -4 -11 3 -6 7 4 12
11 12 17 0 12 -27 12 -35 -1z"/>
<path d="M760 565 c0 -2 6 -8 13 -14 10 -8 14 -7 14 2 0 8 -6 14 -14 14 -7 0
-13 -1 -13 -2z"/>
<path d="M890 560 c0 -5 3 -9 8 -8 4 1 18 -4 32 -11 l25 -12 -25 20 c-28 23
-40 26 -40 11z"/>
<path d="M1080 560 c-9 -6 -10 -10 -3 -10 6 0 15 5 18 10 8 12 4 12 -15 0z"/>
<path d="M972 545 c4 -4 1 -13 -8 -20 -14 -10 -14 -12 3 -25 14 -11 16 -11 6
0 -10 10 -9 16 4 25 13 10 14 13 2 20 -8 5 -11 5 -7 0z"/>
<path d="M1099 548 c-7 -23 -5 -37 4 -35 7 1 11 -4 9 -11 -1 -8 2 -11 8 -7 8
5 6 13 -4 24 -9 10 -13 21 -9 24 3 4 3 7 0 7 -4 0 -7 -1 -8 -2z"/>
<path d="M1510 541 c0 -6 4 -13 10 -16 6 -3 7 1 4 9 -7 18 -14 21 -14 7z"/>
<path d="M875 530 c-3 -5 -1 -10 4 -10 6 0 11 5 11 10 0 6 -2 10 -4 10 -3 0
-8 -4 -11 -10z"/>
<path d="M1233 525 c0 -8 4 -12 9 -9 5 3 6 10 3 15 -9 13 -12 11 -12 -6z"/>
<path d="M1028 523 c9 -3 10 -9 3 -17 -8 -9 -6 -13 4 -13 8 0 13 3 10 5 -3 3
-1 10 5 16 6 8 2 12 -13 13 -12 0 -16 -1 -9 -4z"/>
<path d="M990 510 c0 -5 5 -10 11 -10 5 0 7 5 4 10 -3 6 -8 10 -11 10 -2 0 -4
-4 -4 -10z"/>
<path d="M826 502 c-3 -5 1 -9 9 -9 8 0 12 4 9 9 -3 4 -7 8 -9 8 -2 0 -6 -4
-9 -8z"/>
<path d="M1175 500 c3 -5 8 -10 11 -10 2 0 4 5 4 10 0 6 -5 10 -11 10 -5 0 -7
-4 -4 -10z"/>
<path d="M973 455 c0 -8 4 -12 9 -9 5 3 6 10 3 15 -9 13 -12 11 -12 -6z"/>
</g>
</svg>
